<?xml version="1.0" standalone="no"?>
<!DOCTYPE svg PUBLIC "-//W3C//DTD SVG 20010904//EN"
 "http://www.w3.org/TR/2001/REC-SVG-20010904/DTD/svg10.dtd">
<svg version="1.0" xmlns="http://www.w3.org/2000/svg"
 width="231.000000pt" height="120.000000pt" viewBox="0 0 231.000000 120.000000"
 preserveAspectRatio="xMidYMid meet">

<g transform="translate(0.000000,120.000000) scale(0.100000,-0.100000)"
fill="#000000" stroke="none">
<path d="M1044 1104 c3 -9 6 -138 6 -288 0 -202 3 -277 13 -289 10 -15 12 -9
12 36 1 37 8 65 23 91 18 31 22 52 22 125 l0 88 50 5 c38 4 58 12 80 33 57 55
47 159 -19 198 -41 24 -196 25 -187 1z m150 -70 c19 -18 21 -55 4 -72 -7 -7
-27 -12 -45 -12 -32 0 -33 1 -33 43 0 24 3 47 7 50 12 13 51 7 67 -9z"/>
<path d="M140 248 c0 -68 5 -130 10 -138 7 -11 10 -6 10 22 0 20 5 40 10 43 6
3 10 24 10 46 0 31 4 39 18 39 24 0 52 31 52 57 0 30 -32 53 -73 53 l-37 0 0
-122z m68 69 c2 -10 -3 -17 -12 -17 -10 0 -16 9 -16 21 0 24 23 21 28 -4z"/>
<path d="M282 358 c-7 -7 -12 -25 -12 -40 0 -22 8 -33 35 -49 36 -22 47 -49
20 -49 -9 0 -18 7 -21 15 -4 8 -13 15 -21 15 -24 0 -11 -43 18 -59 24 -13 29
-13 53 2 35 23 34 59 -1 86 -53 40 -56 42 -43 55 8 8 15 7 24 -6 16 -21 46
-24 46 -5 0 37 -71 62 -98 35z"/>
<path d="M470 275 l0 -95 33 0 c18 0 43 7 55 16 19 13 22 24 22 83 0 39 -5 72
-12 79 -7 7 -31 12 -55 12 l-43 0 0 -95z m68 56 c21 -13 12 -105 -10 -109 -16
-3 -18 5 -18 57 0 61 4 68 28 52z"/>
<path d="M610 274 l0 -95 53 3 c43 3 52 6 55 23 3 18 -2 20 -39 17 -36 -4 -40
-2 -37 14 2 12 13 20 31 22 19 2 27 9 27 23 0 15 -7 19 -31 19 -24 0 -30 4
-27 18 3 12 13 17 41 17 29 0 37 4 37 18 0 14 -9 17 -55 17 l-55 0 0 -96z"/>
<path d="M750 298 c3 -40 11 -83 18 -95 34 -60 92 11 92 112 0 48 -2 55 -20
55 -18 0 -20 -7 -20 -57 0 -32 -5 -65 -10 -73 -17 -25 -30 7 -30 73 0 48 -3
57 -17 57 -16 0 -17 -8 -13 -72z"/>
<path d="M960 275 c0 -88 1 -95 20 -95 17 0 20 7 20 40 0 36 3 40 25 40 18 0
25 5 25 20 0 15 -7 20 -25 20 -19 0 -25 5 -25 21 0 18 5 21 30 17 24 -4 30 -1
30 14 0 15 -8 18 -50 18 l-50 0 0 -95z"/>
<path d="M1080 275 c0 -88 1 -95 20 -95 16 0 20 7 20 38 l1 37 20 -37 c11 -21
26 -38 34 -38 19 0 19 13 -1 51 -14 28 -14 32 0 48 19 20 20 44 6 72 -8 14
-21 19 -55 19 l-45 0 0 -95z m68 42 c2 -10 -3 -17 -12 -17 -10 0 -16 9 -16 21
0 24 23 21 28 -4z"/>
<path d="M1232 358 c-7 -7 -12 -40 -12 -80 0 -60 3 -69 24 -83 17 -11 30 -13
48 -6 31 12 38 29 38 95 0 39 -5 57 -18 69 -22 20 -63 22 -80 5z m56 -82 c3
-51 1 -57 -15 -54 -13 2 -19 14 -21 47 -4 51 3 74 21 69 7 -3 13 -27 15 -62z"/>
<path d="M1350 275 c0 -87 2 -95 19 -95 17 0 20 8 23 48 l3 47 22 -47 c16 -35
28 -48 42 -48 20 0 21 6 21 95 0 88 -1 95 -20 95 -17 0 -20 -7 -21 -47 l-1
-48 -21 48 c-16 36 -26 47 -44 47 -22 0 -23 -2 -23 -95z"/>
<path d="M1500 351 c0 -14 5 -18 20 -14 19 5 20 0 20 -76 0 -70 2 -81 18 -81
15 0 17 10 17 77 0 74 1 78 23 77 15 0 22 5 22 18 0 15 -9 18 -60 18 -52 0
-60 -2 -60 -19z"/>
<path d="M1780 274 l0 -95 52 3 c41 2 54 7 56 21 3 14 -4 17 -37 17 -34 0 -41
3 -41 20 0 16 7 20 30 20 23 0 30 4 30 20 0 16 -7 20 -31 20 -24 0 -30 4 -27
18 3 12 13 17 41 17 29 0 37 4 37 18 0 14 -9 17 -55 17 l-55 0 0 -96z"/>
<path d="M1910 275 c0 -88 1 -95 20 -95 17 0 20 7 21 53 l0 52 24 -52 c18 -39
29 -53 44 -53 20 0 21 6 21 95 0 88 -1 95 -20 95 -17 0 -20 -7 -21 -47 l-1
-48 -20 48 c-16 37 -25 47 -44 47 -24 0 -24 -2 -24 -95z"/>
<path d="M2070 274 l0 -97 41 6 c54 7 61 16 67 82 6 75 -13 105 -68 105 l-40
0 0 -96z m65 6 c0 -34 -5 -55 -12 -57 -10 -4 -13 12 -13 57 0 45 3 61 13 58 7
-3 12 -24 12 -58z"/>
<path d="M1640 280 c0 -17 7 -20 50 -20 43 0 50 3 50 20 0 17 -7 20 -50 20
-43 0 -50 -3 -50 -20z"/>
</g>
</svg>
